<svg xmlns="http://www.w3.org/2000/svg" width="589" height="218" viewBox="0 0 589 218">
  <defs>
    <style>
      .cls-1 {
        fill: #20385e;
      }

      .cls-1, .cls-2 {
        fill-rule: evenodd;
      }

      .cls-2 {
        fill: #ffffff;
      }
    </style>
  </defs>
  <path id="_" data-name="&lt;" class="cls-1" d="M22.043,115.444L90,47.482l-11-10.716-78.4,78.4v0.282l78.4,78.4,11-10.716Z"/>
  <path id="_2" data-name="&gt;" class="cls-1" d="M588.005,115.444v-0.282l-78.4-78.4-11,10.716,67.962,67.963-67.962,67.68,11,10.716Z"/>
  <path id="M" class="cls-1" d="M371.369,205.253a80.532,80.532,0,0,1-11.05-1.438q-6.963-1.284-9.687-2.8-5.148-2.725-6.963-6.358a19.829,19.829,0,0,1-1.816-8.93V30.878a23.2,23.2,0,0,1,1.816-9.233,11.089,11.089,0,0,1,6.963-6.055,70.988,70.988,0,0,1,9.612-2.27,77.772,77.772,0,0,1,10.822-1.362V1.21H301.024a72.842,72.842,0,0,1-2.195,10.83,133.168,133.168,0,0,1-4.915,15.525L241.39,162.433,179.864,1.21H106.628V11.957a58.093,58.093,0,0,1,13.472,2.27,29.871,29.871,0,0,1,11.5,6.055,24.413,24.413,0,0,1,6.508,9.839q2.271,6.056,2.271,15.591V155.6q0,20.588-1.968,29.366t-7.266,13.017q-4.086,3.332-11.579,5a111.005,111.005,0,0,1-14.3,2.271V216H192V205.253q-3.179-.148-13.623-3.027T164.6,196.171q-4.846-4.236-7.19-13.926t-2.347-28.306V25.731h1.968l69.78,186.788h7.569l73.262-183h2.27V185.727a18.041,18.041,0,0,1-2.195,9.309,19.7,19.7,0,0,1-6.887,6.584q-3.03,1.668-11.125,2.573t-13.245,1.06V216h94.907V205.253Z"/>
  <path id="_3" data-name="&amp;" class="cls-2" d="M484.568,106.556H421.35v8.39a95.094,95.094,0,0,1,15.184,4.2q5.495,2.187,5.5,5.967,0,8.508-4.357,19.674a145.361,145.361,0,0,1-12.249,23.81q-9.8-11.933-20.424-24.282t-21.72-27.355q15.435-8.154,24.213-18.375a36.22,36.22,0,0,0,8.777-24.4,33.865,33.865,0,0,0-2.186-11.816,31.165,31.165,0,0,0-6.322-10.4,33.147,33.147,0,0,0-11.639-7.858,42.481,42.481,0,0,0-16.6-3.013,49.8,49.8,0,0,0-15.834,2.6A39.534,39.534,0,0,0,350.452,50.9a36.062,36.062,0,0,0-9.158,11.876,34.174,34.174,0,0,0-3.249,14.948A40.622,40.622,0,0,0,343.362,98.4a218.382,218.382,0,0,0,14.889,21.86q-21.154,13.355-28.892,25.228a47.543,47.543,0,0,0-7.739,26.528q0,11.817,4.254,20.324a40.709,40.709,0,0,0,11.107,13.944,46.6,46.6,0,0,0,15.716,8.094,61.2,61.2,0,0,0,17.37,2.54,47.553,47.553,0,0,0,14.593-2.008,64.6,64.6,0,0,0,12.348-5.554,66.276,66.276,0,0,0,10.576-7.858q5.02-4.548,8.921-8.8l17.607,20.088H482.8V204.4a86.96,86.96,0,0,1-14.225-2.127q-8.677-1.889-13.4-4.608a70.687,70.687,0,0,1-11.689-9.631,164.458,164.458,0,0,1-11.567-12.348,85.2,85.2,0,0,0,9.434-14.652q3.656-7.326,7.194-14.889t6.072-13.116a35.14,35.14,0,0,1,5.018-8.39,21.615,21.615,0,0,1,10.871-6.912,66.877,66.877,0,0,1,14.062-2.777v-8.39Zm-88.895-11.4q-5.352,7.977-17.469,14.83a140.807,140.807,0,0,1-13.222-20.147,36.045,36.045,0,0,1-4.25-16.484,25.293,25.293,0,0,1,1.06-6.735,21.345,21.345,0,0,1,9.662-12.762,17.276,17.276,0,0,1,9.189-2.245q9.779,0,15.08,6.44t5.3,18.493A32.609,32.609,0,0,1,395.673,95.153Zm0.922,101.5a41.189,41.189,0,0,1-16.957,3.722q-15.361,0-24.519-10.575t-9.158-26.646a49.786,49.786,0,0,1,3.959-20.384q3.957-8.921,13.53-15.538,8.27,11.463,22.037,28.064t24.756,30.545A34.158,34.158,0,0,1,396.6,196.656Z"/>
</svg>
